<?xml version="1.0" encoding="UTF-8" standalone="no"?>
<!-- Created with Inkscape (http://www.inkscape.org/) -->

<svg
   version="1.1"
   id="svg2"
   width="1920"
   height="600"
   viewBox="0 0 1920 600"
   sodipodi:docname="libraries-lightbg-2c-rgb-h.eps"
   xmlns:inkscape="http://www.inkscape.org/namespaces/inkscape"
   xmlns:sodipodi="http://sodipodi.sourceforge.net/DTD/sodipodi-0.dtd"
   xmlns="http://www.w3.org/2000/svg"
   xmlns:svg="http://www.w3.org/2000/svg">
  <defs
     id="defs6" />
  <sodipodi:namedview
     id="namedview4"
     pagecolor="#ffffff"
     bordercolor="#000000"
     borderopacity="0.25"
     inkscape:showpageshadow="2"
     inkscape:pageopacity="0.0"
     inkscape:pagecheckerboard="0"
     inkscape:deskcolor="#d1d1d1" />
  <g
     id="g8"
     inkscape:groupmode="layer"
     inkscape:label="ink_ext_XXXXXX"
     transform="matrix(1.3333333,0,0,-1.3333333,0,600)">
    <g
       id="g10"
       transform="scale(0.1)">
      <path
         d="m 2052.01,3202.16 -99.25,-161.54 c -27.17,-44.23 -110.88,-78.68 -110.88,-78.68 l -108.72,-190.03 3.52,-49.02 c 1.5,-26.55 -168.4,-116.93 -220.22,-146.9 h -483.05 c -17.62,30.07 -100.273,148.05 -84.976,177.77 6,11.5 29.754,28.23 54.656,48 l 117.67,189 c -24.75,50.4 -41.87,80.7 -30.75,97.3 l 86.1,128.5 c -96.9,0 -341.852,23.35 -341.852,166.2 0,263.98 373.132,251.26 433.322,453.7 0,0 21.98,-33.4 21.98,-70.15 0,-135.22 -186.85,-197.32 -186.85,-252.54 0,-77.08 259.58,-93.91 455.95,-93.91 l -250.43,-375.52 27.65,-58.57 -135.47,-220.21 h 265.9 l 105.63,198.78 81.84,52.55 235.36,391.17 c 319.64,0 456.19,52 456.19,109.28 0,38.15 -54.15,77.77 -54.15,157.7 0,79.2 94.5,148.5 94.5,148.5 -48.15,-181.05 178.48,-181 178.48,-325.68 0,-203.67 -272.58,-295.7 -512.15,-295.7 m 359.72,571.96 c 0,32.44 29.71,131.09 29.71,131.09 0,0 -183.15,-107.85 -183.15,-230.17 0,-85.43 54.15,-136.33 54.15,-157.7 0,-25.47 -110.68,-76.4 -441.9,-76.4 l -240.98,-400.55 -82.6,-53.05 -100.4,-188.88 h -187.3 l 113.98,185.26 -27.33,57.84 274.23,411.18 c -428.66,0 -484.31,51.5 -484.31,60.25 0,24.12 186.6,109.08 186.6,253.32 0,66.85 -66.22,147.3 -66.22,147.3 -31.85,-279.95 -454.823,-213.12 -454.823,-530.85 0,-130.12 158.297,-185.82 314.573,-196.9 l -53.27,-79.47 c -20.36,-30.35 -4.28,-63.8 20.49,-113.78 L 978.238,2824.09 c 0,0 -48.453,-34.8 -58.957,-55.13 -21.82,-42.87 23.407,-106.95 95.459,-225 h 511.87 c 172.1,97.28 243,137.35 243,177.93 l -2.93,42.37 98.4,171.98 c 25.75,11.7 89.06,43.77 115.7,87.15 l 89.9,146.32 c 257.08,4.78 526.36,107.73 526.36,328.15 0,148.53 -185.31,167.63 -185.31,276.26"
         style="fill:#ffffff;fill-opacity:1;fill-rule:nonzero;stroke:none"
         id="path12" />
      <path
         d="m 2070.69,3169.72 -89.9,-146.33 c -26.65,-43.39 -89.97,-75.45 -115.7,-87.14 l -98.4,-171.98 2.93,-42.4 c 0,-40.55 -70.92,-80.65 -243,-177.9 h -511.88 c -72.072,118.05 -117.275,182.1 -95.447,224.98 10.496,20.35 58.949,55.15 58.949,55.15 l 104.928,168.52 c -24.75,49.98 -40.83,83.42 -20.48,113.75 l 53.28,79.5 c -156.302,11.08 -314.603,66.78 -314.603,196.87 0,317.75 423.003,250.93 454.853,530.89 0,0 66.22,-80.46 66.22,-147.34 0,-144.22 -186.6,-229.17 -186.6,-253.3 0,-8.77 55.65,-60.25 484.28,-60.25 l -274.2,-411.19 27.32,-57.83 -114,-185.25 h 187.3 l 100.4,188.87 82.63,53.06 240.97,400.55 c 331.23,0 441.9,50.9 441.9,76.39 0,21.36 -54.15,72.28 -54.15,157.68 0,122.35 183.13,230.2 183.13,230.2 0,0 -29.7,-98.65 -29.7,-131.1 0,-108.62 185.32,-127.75 185.32,-276.25 0,-220.45 -269.3,-323.37 -526.35,-328.15 m 380.15,604.4 c 0,57.73 57.1,228.6 57.1,228.6 0,0 -288.87,-160.08 -288.87,-327.68 0,-80.62 46.25,-147.45 46.25,-147.45 -84.78,-39.27 -253.8,-47.39 -416.98,-47.39 l -247.67,-411.73 -83.58,-53.65 -94.12,-177.12 h -93.48 l 88.3,143.55 -26.9,57 302.61,453.77 c -342.88,0 -413.76,10.83 -490.79,30.6 0,0 158.98,101.58 158.98,243.67 0,94.48 -119.07,239.38 -119.07,239.38 l -44.18,-148.65 c -47.85,-160.97 -436.323,-159.38 -436.323,-474.25 0,-137.87 131.774,-205.9 285.123,-228.9 l -17.17,-25.62 c -28.78,-42.93 -13.62,-87.08 8.35,-133.3 l -89.826,-144.23 c 0,0 -49.278,-34.32 -64.125,-63.63 -30.754,-60.6 9.176,-124.12 107.949,-281.34 h 546.342 c 214.36,121.19 269.99,152.62 269.99,221.14 -0.06,0.63 -1.11,15.05 -2.06,28.28 l 86.3,150.8 c 34.23,16.75 92.7,50.45 121.23,96.88 l 78.77,128.24 c 269.08,10.66 543.33,126.28 543.33,366.78 0,163.35 -185.48,204.13 -185.48,276.25"
         style="fill:#cfc493;fill-opacity:1;fill-rule:nonzero;stroke:none"
         id="path14" />
      <path
         d="m 2385.68,3823.54 c 0,0 -94.5,-69.3 -94.5,-148.5 0,-79.95 54.15,-119.55 54.15,-157.7 0,-57.27 -136.55,-109.27 -456.2,-109.27 l -235.33,-391.2 -81.85,-52.55 -105.65,-198.75 h -265.89 l 135.47,220.2 -27.65,58.57 250.43,375.5 c -196.38,0 -455.95,16.85 -455.95,93.93 0,55.23 186.85,117.32 186.85,252.55 0,36.75 -21.98,70.14 -21.98,70.14 -60.18,-202.44 -433.322,-189.72 -433.322,-453.72 0,-142.85 244.942,-166.17 341.842,-166.17 l -86.1,-128.5 c -11.12,-16.61 6.01,-46.9 30.76,-97.3 l -117.68,-189 c -24.877,-19.8 -48.646,-36.51 -54.623,-48.01 -15.328,-29.72 67.323,-147.7 84.973,-177.77 h 483.05 c 51.83,29.95 221.7,120.35 220.2,146.9 l -3.53,49.03 108.75,190.02 c 0,0 83.68,34.45 110.85,78.68 l 99.26,161.55 c 239.57,0 512.15,92.02 512.15,295.7 0,144.67 -226.61,144.62 -178.48,325.67"
         style="fill:#006747;fill-opacity:1;fill-rule:nonzero;stroke:none"
         id="path16" />
      <path
         d="m 1758.91,2526.54 c -5.85,-5.95 -12.98,-8.92 -21.35,-8.92 -8.36,0 -15.48,2.97 -21.33,8.92 -5.8,5.96 -8.72,13.13 -8.72,21.58 0,8.37 2.92,15.5 8.77,21.42 5.9,5.95 12.98,8.93 21.28,8.93 8.35,0 15.47,-2.98 21.35,-8.93 5.85,-5.92 8.8,-13.05 8.8,-21.42 0,-8.45 -2.95,-15.62 -8.8,-21.58 m -21.33,56.68 c -9.62,0 -17.82,-3.43 -24.62,-10.25 -6.83,-6.85 -10.25,-15.13 -10.25,-24.8 0,-9.78 3.37,-18.1 10.15,-24.95 6.8,-6.93 15.05,-10.35 24.72,-10.35 9.7,0 17.98,3.42 24.8,10.35 6.83,6.9 10.23,15.2 10.23,24.95 0,9.7 -3.4,17.95 -10.23,24.8 -6.82,6.82 -15.1,10.25 -24.8,10.25"
         style="fill:#006747;fill-opacity:1;fill-rule:nonzero;stroke:none"
         id="path18" />
      <path
         d="m 1742.89,2549.81 c -1.45,-0.57 -3.62,-0.85 -6.5,-0.85 h -6.18 v 13.91 h 5.85 c 3.78,0 6.53,-0.48 8.26,-1.43 1.72,-0.95 2.57,-2.85 2.57,-5.62 0,-2.98 -1.32,-4.96 -4,-6.01 m 10.58,6.63 c 0,4.87 -2.01,8.13 -5.98,9.77 -2.22,0.93 -5.72,1.4 -10.52,1.4 h -13.45 v -38.65 h 6.69 v 15.25 h 5.36 c 3.6,0 6.12,-0.42 7.57,-1.25 2.4,-1.45 3.63,-4.4 3.63,-8.87 v -3.07 l 0.14,-1.25 c 0,-0.16 0.06,-0.31 0.08,-0.43 0.05,-0.13 0.08,-0.25 0.12,-0.38 h 6.36 l -0.25,0.48 c -0.15,0.33 -0.28,1 -0.35,2 -0.05,1.03 -0.11,2 -0.11,2.9 v 2.82 c 0,1.95 -0.67,3.95 -2.04,6 -1.4,2.03 -3.58,3.28 -6.53,3.78 2.35,0.4 4.2,1 5.53,1.87 2.5,1.63 3.75,4.18 3.75,7.63"
         style="fill:#006747;fill-opacity:1;fill-rule:nonzero;stroke:none"
         id="path20" />
      <path
         d="m 3143.1,3827.36 v -216.54 c 0,-29.59 12.86,-45.02 41.59,-45.02 28.72,0 42.01,15.43 42.01,45.02 v 216.54 h 59.18 v -216.97 c 0,-68.17 -40.31,-96.9 -101.19,-96.9 -60.89,0 -100.76,28.73 -100.76,96.9 v 216.97 h 59.17"
         style="fill:#006747;fill-opacity:1;fill-rule:nonzero;stroke:none"
         id="path22" />
      <path
         d="m 3410.2,3517.78 v 309.58 h 64.75 l 82.32,-183.52 h 0.86 v 183.52 h 54.02 v -309.58 h -56.6 l -90.47,199.81 h -0.86 v -199.81 h -54.02"
         style="fill:#006747;fill-opacity:1;fill-rule:nonzero;stroke:none"
         id="path24" />
      <path
         d="m 3736.47,3517.78 v 309.58 h 59.17 v -309.58 h -59.17"
         style="fill:#006747;fill-opacity:1;fill-rule:nonzero;stroke:none"
         id="path26" />
      <path
         d="m 3896.4,3827.36 h 58.32 l 54.45,-221.25 h 0.86 l 54.02,221.25 h 57.89 l -78.9,-309.58 h -67.32 l -79.32,309.58"
         style="fill:#006747;fill-opacity:1;fill-rule:nonzero;stroke:none"
         id="path28" />
      <path
         d="m 4219.25,3517.78 v 309.58 h 162.08 v -52.32 h -102.91 v -71.17 h 78.46 v -52.31 h -78.46 v -81.47 h 107.2 v -52.31 h -166.37"
         style="fill:#006747;fill-opacity:1;fill-rule:nonzero;stroke:none"
         id="path30" />
      <path
         d="m 4557.11,3692.72 h 30.44 c 26.16,0 42.02,12.86 42.02,42.88 0,30.01 -15.86,42.87 -42.02,42.87 h -30.44 z m 79.75,-174.94 -51.45,126.06 h -28.3 v -126.06 h -59.18 v 309.58 h 85.76 c 71.18,0 105.05,-34.31 105.05,-92.63 0,-38.58 -13.72,-66.45 -46.74,-78.89 l 58.32,-138.06 h -63.46"
         style="fill:#006747;fill-opacity:1;fill-rule:nonzero;stroke:none"
         id="path32" />
      <path
         d="m 4931.41,3741.17 c -9.87,29.16 -22.73,41.59 -43.31,41.59 -21.01,0 -32.59,-12.86 -32.59,-33.87 0,-46.74 132.07,-50.17 132.07,-147.07 0,-53.17 -36.45,-88.33 -98.62,-88.33 -48.02,0 -85.33,26.15 -101.19,87.04 l 58.31,12.43 c 6.86,-37.3 28.3,-50.59 45.88,-50.59 20.58,0 36.45,13.72 36.45,36.87 0,58.32 -132.07,59.17 -132.07,145.79 0,53.16 31.73,86.61 93.05,86.61 52.74,0 84.89,-31.3 95.19,-75.03 l -53.17,-15.44"
         style="fill:#006747;fill-opacity:1;fill-rule:nonzero;stroke:none"
         id="path34" />
      <path
         d="m 5106.76,3517.78 v 309.58 h 59.17 v -309.58 h -59.17"
         style="fill:#006747;fill-opacity:1;fill-rule:nonzero;stroke:none"
         id="path36" />
      <path
         d="m 5466.06,3827.36 v -52.32 h -69.03 v -257.26 h -59.17 v 257.26 h -69.03 v 52.32 h 197.23"
         style="fill:#006747;fill-opacity:1;fill-rule:nonzero;stroke:none"
         id="path38" />
      <path
         d="m 5658.99,3702.58 50.18,124.78 h 63.02 l -84.47,-184.38 v -125.2 h -59.17 v 125.2 l -84.46,184.38 h 63.02 l 51.88,-124.78"
         style="fill:#006747;fill-opacity:1;fill-rule:nonzero;stroke:none"
         id="path40" />
      <path
         d="m 5988.65,3712.73 c -35.82,0 -58.73,-30.83 -58.73,-86.64 0,-55.82 22.91,-86.65 58.73,-86.65 35.83,0 58.74,30.83 58.74,86.65 0,55.81 -22.91,86.64 -58.74,86.64 z m 0,-199.12 c -59.15,0 -88.72,49.99 -88.72,112.48 0,62.48 29.57,112.47 88.72,112.47 59.15,0 88.73,-49.99 88.73,-112.47 0,-62.49 -29.58,-112.48 -88.73,-112.48"
         style="fill:#006747;fill-opacity:1;fill-rule:nonzero;stroke:none"
         id="path42" />
      <path
         d="m 6171.9,3517.78 v 190.78 h -36.66 v 25.83 h 36.66 v 24.58 c 0,51.24 17.5,63.74 52.91,63.74 8.74,0 17.91,-1.25 26.66,-2.09 v -26.66 c -7.09,0.84 -15,2.92 -21.67,2.92 -20.41,0 -27.91,-6.67 -27.91,-30.83 v -31.66 h 47.08 v -25.83 h -47.08 v -190.78 h -29.99"
         style="fill:#006747;fill-opacity:1;fill-rule:nonzero;stroke:none"
         id="path44" />
      <path
         d="m 3357.08,3116.71 c -23.44,69.3 -54.01,98.86 -102.93,98.86 -49.94,0 -77.46,-30.57 -77.46,-80.52 0,-111.08 313.9,-119.23 313.9,-349.56 0,-126.37 -86.63,-209.94 -234.4,-209.94 -114.15,0 -202.81,62.17 -240.52,206.89 l 138.6,29.55 c 16.31,-88.66 67.26,-120.26 109.05,-120.26 48.92,0 86.63,32.62 86.63,87.65 0,138.6 -313.9,140.64 -313.9,346.5 0,126.38 75.42,205.87 221.15,205.87 125.36,0 201.79,-74.4 226.25,-178.35 l -126.37,-36.69"
         style="fill:#006747;fill-opacity:1;fill-rule:nonzero;stroke:none"
         id="path46" />
      <path
         d="m 3731.14,2803.84 c 0,-81.54 35.67,-103.95 91.72,-103.95 56.05,0 91.72,22.41 91.72,103.95 v 299.62 c 0,81.54 -35.67,103.95 -91.72,103.95 -56.05,0 -91.72,-22.41 -91.72,-103.95 z m -140.64,281.28 c 0,181.4 95.8,246.63 232.36,246.63 136.56,0 232.36,-65.23 232.36,-246.63 v -262.94 c 0,-181.4 -95.8,-246.63 -232.36,-246.63 -136.56,0 -232.36,65.23 -232.36,246.63 v 262.94"
         style="fill:#006747;fill-opacity:1;fill-rule:nonzero;stroke:none"
         id="path48" />
      <path
         d="m 4308,3321.56 v -514.67 c 0,-70.32 30.57,-107 98.86,-107 68.28,0 99.87,36.68 99.87,107 v 514.67 h 140.64 v -515.69 c 0,-162.04 -95.8,-230.32 -240.51,-230.32 -144.72,0 -239.5,68.28 -239.5,230.32 v 515.69 H 4308"
         style="fill:#006747;fill-opacity:1;fill-rule:nonzero;stroke:none"
         id="path50" />
      <path
         d="M 5218.13,3321.56 V 3197.22 H 5054.04 V 2585.74 H 4913.4 v 611.48 h -164.08 v 124.34 h 468.81"
         style="fill:#006747;fill-opacity:1;fill-rule:nonzero;stroke:none"
         id="path52" />
      <path
         d="m 5320.07,2585.74 v 735.82 h 140.64 v -293.51 h 198.73 v 293.51 h 140.64 v -735.82 h -140.64 v 317.97 h -198.73 v -317.97 h -140.64"
         style="fill:#006747;fill-opacity:1;fill-rule:nonzero;stroke:none"
         id="path54" />
      <path
         d="m 6167.02,2585.74 v 735.82 h 366.89 v -124.34 h -226.25 v -169.17 h 177.33 v -124.34 h -177.33 v -317.97 h -140.64"
         style="fill:#006747;fill-opacity:1;fill-rule:nonzero;stroke:none"
         id="path56" />
      <path
         d="m 6629.73,2585.74 v 735.82 h 140.64 v -611.48 h 226.24 v -124.34 h -366.88"
         style="fill:#006747;fill-opacity:1;fill-rule:nonzero;stroke:none"
         id="path58" />
      <path
         d="m 7220.83,2803.84 c 0,-81.54 35.67,-103.95 91.73,-103.95 56.05,0 91.72,22.41 91.72,103.95 v 299.62 c 0,81.54 -35.67,103.95 -91.72,103.95 -56.06,0 -91.73,-22.41 -91.73,-103.95 z m -140.63,281.28 c 0,181.4 95.8,246.63 232.36,246.63 136.56,0 232.36,-65.23 232.36,-246.63 v -262.94 c 0,-181.4 -95.8,-246.63 -232.36,-246.63 -136.56,0 -232.36,65.23 -232.36,246.63 v 262.94"
         style="fill:#006747;fill-opacity:1;fill-rule:nonzero;stroke:none"
         id="path60" />
      <path
         d="m 7809.93,3001.55 h 72.36 c 62.17,0 99.87,30.57 99.87,101.91 0,71.34 -37.7,101.92 -99.87,101.92 h -72.36 z m 189.56,-415.81 -122.3,299.63 h -67.26 v -299.63 h -140.64 v 735.82 h 203.83 c 169.17,0 249.68,-81.54 249.68,-220.13 0,-91.73 -32.61,-157.97 -111.08,-187.53 l 138.6,-328.16 h -150.83"
         style="fill:#006747;fill-opacity:1;fill-rule:nonzero;stroke:none"
         id="path62" />
      <path
         d="m 8254.31,2585.74 v 735.82 h 140.64 v -735.82 h -140.64"
         style="fill:#006747;fill-opacity:1;fill-rule:nonzero;stroke:none"
         id="path64" />
      <path
         d="m 8680.33,2710.08 h 48.92 c 77.45,0 122.29,36.69 122.29,146.75 v 193.64 c 0,103.95 -34.65,146.75 -122.29,146.75 h -48.92 z m -140.64,611.48 h 195.68 c 161.02,0 250.7,-69.3 256.82,-254.79 v -226.24 c -6.12,-185.49 -95.8,-254.79 -256.82,-254.79 h -195.68 v 735.82"
         style="fill:#006747;fill-opacity:1;fill-rule:nonzero;stroke:none"
         id="path66" />
      <path
         d="m 9267.39,2864.99 h 139.62 l -68.28,297.58 h -2.04 z m -200.77,-279.25 182.42,735.82 h 180.39 l 177.33,-735.82 h -134.53 l -35.67,154.91 h -194.65 l -39.75,-154.91 h -135.54"
         style="fill:#006747;fill-opacity:1;fill-rule:nonzero;stroke:none"
         id="path68" />
      <path
         d="m 3087.78,1800.72 v 389.89 h 74.52 V 1866.6 h 119.89 v -65.88 h -194.41"
         style="fill:#006747;fill-opacity:1;fill-rule:nonzero;stroke:none"
         id="path70" />
      <path
         d="m 3404.76,2094.48 v -293.76 h -68.05 v 293.76 z m -68.05,50.76 v 61.57 h 68.05 v -61.57 h -68.05"
         style="fill:#006747;fill-opacity:1;fill-rule:nonzero;stroke:none"
         id="path72" />
      <path
         d="m 3547.86,1867.14 c 13.5,-14.58 25.92,-21.06 41.04,-21.06 18.36,0 33.48,11.88 33.48,70.2 v 62.64 c 0,58.32 -15.12,70.2 -33.48,70.2 -15.12,0 -27.54,-6.48 -41.04,-21.06 z m -68.04,-66.42 v 389.89 h 68.04 v -123.13 c 32.4,23.76 49.68,32.4 68.04,32.4 52.92,0 74.52,-41.04 74.52,-116.64 v -71.28 c 0,-75.6 -21.6,-116.64 -74.52,-116.64 -30.24,0 -60.48,22.68 -72.36,41.04 h -1.08 v -35.64 h -62.64"
         style="fill:#006747;fill-opacity:1;fill-rule:nonzero;stroke:none"
         id="path74" />
      <path
         d="m 3751.44,1800.72 v 293.76 h 66.42 v -38.88 h 1.08 c 15.65,29.16 36.18,44.28 70.2,44.28 v -73.44 c -11.34,3.24 -24.31,7.56 -36.19,7.56 -22.13,0 -33.48,-16.74 -33.48,-32.4 v -200.88 h -68.03"
         style="fill:#006747;fill-opacity:1;fill-rule:nonzero;stroke:none"
         id="path76" />
      <path
         d="m 4067.33,1944.36 c -40.5,-14.04 -81.54,-36.72 -81.54,-67.5 0,-19.44 11.88,-30.78 30.24,-30.78 20.52,0 35.1,10.8 51.3,27 z m -140.94,64.26 c 2.7,32.94 16.2,55.62 36.18,70.2 19.44,14.58 45.9,21.06 72.9,21.06 72.36,0 99.9,-36.72 99.9,-89.1 v -186.3 c 0,-8.1 1.62,-16.2 3.78,-23.76 h -68.04 c -1.62,7.56 -2.7,16.74 -4.86,28.62 -19.98,-19.98 -46.98,-34.02 -81,-34.02 -41.04,0 -67.5,22.68 -67.5,70.2 0,68.04 64.8,97.2 149.58,122.58 v 21.6 c 0,25.38 -15.66,35.1 -35.1,35.1 -20.52,0 -37.8,-15.12 -37.8,-36.18 h -68.04"
         style="fill:#006747;fill-opacity:1;fill-rule:nonzero;stroke:none"
         id="path78" />
      <path
         d="m 4204.49,1800.72 v 293.76 h 66.42 v -38.88 h 1.08 c 15.66,29.16 36.18,44.28 70.2,44.28 v -73.44 c -11.34,3.24 -24.3,7.56 -36.18,7.56 -22.14,0 -33.48,-16.74 -33.48,-32.4 v -200.88 h -68.04"
         style="fill:#006747;fill-opacity:1;fill-rule:nonzero;stroke:none"
         id="path80" />
      <path
         d="m 4462.61,2094.48 v -293.76 h -68.04 v 293.76 z m -68.04,50.76 v 61.57 h 68.04 v -61.57 h -68.04"
         style="fill:#006747;fill-opacity:1;fill-rule:nonzero;stroke:none"
         id="path82" />
      <path
         d="m 4680.22,1986.48 v 16.2 c 0,25.92 -12.41,42.12 -39.96,42.12 -27.54,0 -39.96,-16.2 -39.96,-42.12 v -16.2 z m -79.92,-55.08 v -38.88 c 0,-29.16 17.29,-42.12 39.96,-42.12 28.63,0 39.96,18.36 39.96,41.04 h 68.05 c -3.24,-60.48 -39.42,-96.12 -108.01,-96.12 -64.8,0 -107.99,39.96 -107.99,104.22 v 96.12 c 0,64.26 43.19,104.22 107.99,104.22 63.19,0 108.01,-39.96 108.01,-99.9 V 1931.4 H 4600.3"
         style="fill:#006747;fill-opacity:1;fill-rule:nonzero;stroke:none"
         id="path84" />
      <path
         d="m 4938.89,2004.84 c -9.18,27 -26.46,39.96 -46.99,39.96 -15.65,0 -27.53,-11.34 -27.53,-26.46 0,-45.36 132.84,-46.44 132.84,-133.92 0,-58.32 -41.04,-89.1 -97.74,-89.1 -41.04,0 -77.77,10.26 -110.71,83.7 l 61.03,16.74 c 5.94,-27.54 22.68,-45.36 49.68,-45.36 20.52,0 32.94,9.72 32.94,25.92 0,56.16 -132.84,42.66 -132.84,141.48 0,55.62 44.81,82.08 92.88,82.08 50.76,0 85.86,-29.16 102.6,-73.44 l -56.16,-21.6"
         style="fill:#006747;fill-opacity:1;fill-rule:nonzero;stroke:none"
         id="path86" />
    </g>
  </g>
</svg>
